<?xml version="1.0" encoding="UTF-8" standalone="no"?>
<!-- Created with Inkscape (http://www.inkscape.org/) -->

<svg
   xmlns:dc="http://purl.org/dc/elements/1.1/"
   xmlns:cc="http://creativecommons.org/ns#"
   xmlns:rdf="http://www.w3.org/1999/02/22-rdf-syntax-ns#"
   xmlns:svg="http://www.w3.org/2000/svg"
   xmlns="http://www.w3.org/2000/svg"
   xmlns:inkscape="http://www.inkscape.org/namespaces/inkscape"
   version="1.1"
   width="453.54376"
   height="36.14175"
   id="svg2"
   xml:space="preserve"><metadata
     id="metadata8"><rdf:RDF><cc:Work
         rdf:about=""><dc:format>image/svg+xml</dc:format><dc:type
           rdf:resource="http://purl.org/dc/dcmitype/StillImage" /></cc:Work></rdf:RDF></metadata><defs
     id="defs6"><clipPath
       id="clipPath16"><path
         d="m 0,0 362.835,0 0,28.913 L 0,28.913 0,0 z"
         inkscape:connector-curvature="0"
         id="path18" /></clipPath></defs><g
     transform="matrix(1.25,0,0,-1.25,0,36.14175)"
     id="g10"><g
       id="g12"><g
         clip-path="url(#clipPath16)"
         id="g14"><g
           transform="translate(-2.8346,31.748)"
           id="g20"><path
             d="m 0,0 0,-31.748 323.227,0 c -0.171,0.121 -0.33,0.249 -0.472,0.385 -1.264,1.222 -1.281,2.642 -1.317,3.973 l 0,7.549 4.044,0 0,-7.928 c 0,-0.539 0.018,-1.096 0.469,-1.527 0.325,-0.342 0.813,-0.467 1.282,-0.467 0.632,0 1.047,0.233 1.282,0.449 0.47,0.449 0.487,1.006 0.487,1.545 l 0,7.928 4.063,0 0,-6.759 c 0,-1.455 0,-3.343 -1.499,-4.763 -0.143,-0.135 -0.301,-0.263 -0.471,-0.385 l 6.056,0 c -1.783,1.279 -2.62,3.417 -2.62,5.49 0,3.416 2.293,6.885 6.608,6.885 1.932,0 3.773,-0.683 5.11,-2.05 0.541,-0.557 0.794,-0.988 1.065,-1.491 l -3.376,-1.672 c -0.325,0.755 -0.939,2.103 -2.637,2.103 -0.884,0 -1.444,-0.414 -1.715,-0.683 -0.957,-0.917 -0.957,-2.355 -0.957,-2.859 0,-1.887 0.705,-3.667 2.691,-3.667 1.878,0 2.437,1.654 2.582,2.086 l 3.43,-1.654 c -0.325,-0.611 -0.632,-1.187 -1.246,-1.798 -0.263,-0.258 -0.548,-0.487 -0.85,-0.69 l 3.709,0 0,11.926 4.026,0 0,-9.373 5.225,0 0,-2.553 10.308,0 0,31.748 L 0,0 z"
             inkscape:connector-curvature="0"
             id="path22"
             style="fill:#8ca530;fill-opacity:1;fill-rule:nonzero;stroke:none" /></g><g
           transform="translate(316.5547,9.1859)"
           id="g24"><path
             d="m 0,0 c -0.008,0.002 -2.179,0.468 -2.179,0.468 0,0 -2.174,-0.467 -2.178,-0.468 -0.012,-0.002 -0.008,-0.012 -0.008,-0.012 l 0.03,-0.112 0.007,0 -10e-4,0 c 0,0 0.034,0.004 0.053,-0.027 l 0.033,-0.179 c 0,0 0,-0.012 0.013,-0.012 l 0.079,0 3.944,0 0.08,0 c 0.011,0 0.012,0.009 0.012,0.009 l 0.033,0.179 c 0.018,0.035 0.055,0.03 0.055,0.03 l -0.001,0 0.006,0 0.03,0.112 c 0,0 0.004,0.01 -0.008,0.012"
             inkscape:connector-curvature="0"
             id="path26"
             style="fill:#ffffff;fill-opacity:1;fill-rule:nonzero;stroke:none" /></g><g
           transform="translate(316.3268,8.7859)"
           id="g28"><path
             d="m 0,0 c 0.003,0 0.005,0.002 0.005,0.005 l 0,0.056 c 0,0.002 -0.002,0 -0.005,0 l -0.331,0 c -0.003,0 -0.005,0.002 -0.005,0 l 0,-0.056 C -0.336,0.002 -0.334,0 -0.331,0 l 0.014,0 c 0.007,0 0.007,-0.007 0.007,-0.013 0,-0.009 0.004,-0.052 0.034,-0.078 0.004,-0.003 0.003,-0.014 -0.006,-0.014 l -0.011,0 c -0.007,0 -0.008,-0.005 -0.005,-0.009 0.002,-0.005 0.003,-0.02 0.003,-0.026 l 0,-0.025 c 0,-0.004 0,-0.008 0.005,-0.008 l 0.005,0 c 0,0 0.003,0.001 0.003,-0.003 l 0,-0.005 0,-1.217 C -0.285,-1.402 -0.298,-1.415 -0.299,-1.416 -0.3,-1.417 -0.301,-1.419 -0.301,-1.42 l 0,-0.021 c 0,-10e-4 -0.001,-0.004 -0.002,-0.005 -0.001,0 -0.003,-0.001 -0.005,-0.001 l -0.015,0 c -0.002,0 -0.005,-0.002 -0.005,-0.005 l 0,-0.035 0.324,0 0,0.035 c 0,0.003 -0.002,0.005 -0.004,0.005 l -0.016,0 c -0.002,0 -0.003,0.001 -0.004,0.001 -0.001,10e-4 -0.002,0.004 -0.002,0.005 l 0,0.021 c 0,10e-4 0,0.002 -0.002,0.004 -0.002,0.002 -0.012,0.013 -0.018,0.018 l 0,1.217 0,0.005 c 0,0.004 0.004,0.003 0.004,0.003 l 0.004,0 c 0.005,0 0.005,0.004 0.005,0.008 l 0,0.025 c 0,0.006 0.002,0.021 0.004,0.026 0.003,0.004 0.002,0.009 -0.006,0.009 l -0.01,0 c -0.009,0 -0.01,0.011 -0.006,0.014 0.03,0.025 0.033,0.069 0.033,0.077 0,0.007 0,0.014 0.008,0.014 L 0,0 z"
             inkscape:connector-curvature="0"
             id="path30"
             style="fill:#ffffff;fill-opacity:1;fill-rule:nonzero;stroke:none" /></g><g
           transform="translate(315.6129,8.7859)"
           id="g32"><path
             d="m 0,0 c 0.003,0 0.005,0.002 0.005,0.005 l 0,0.056 c 0,0.002 -0.002,0 -0.005,0 l -0.331,0 c -0.003,0 -0.005,0.002 -0.005,0 l 0,-0.056 C -0.336,0.002 -0.334,0 -0.331,0 l 0.014,0 c 0.006,0 0.007,-0.007 0.007,-0.013 0,-0.009 0.004,-0.052 0.033,-0.078 0.005,-0.003 0.003,-0.014 -0.006,-0.014 l -0.01,0 c -0.008,0 -0.008,-0.005 -0.006,-0.009 0.003,-0.005 0.004,-0.02 0.004,-0.026 l 0,-0.025 c 0,-0.004 0,-0.008 0.005,-0.008 l 0.005,0 c 0,0 0.003,0.001 0.003,-0.003 0,-0.003 0,-0.005 0,-0.005 l 0,-1.217 C -0.286,-1.402 -0.299,-1.415 -0.3,-1.416 -0.301,-1.417 -0.301,-1.419 -0.301,-1.42 l 0,-0.021 c 0,-10e-4 0,-0.004 -0.002,-0.005 -0.001,0 -0.003,-0.001 -0.005,-0.001 l -0.015,0 c -0.002,0 -0.005,-0.002 -0.005,-0.005 l 0,-0.035 0.324,0 0,0.035 c 0,0.003 -0.002,0.005 -0.004,0.005 l -0.016,0 c -0.002,0 -0.004,0.001 -0.005,0.001 -10e-4,10e-4 -10e-4,0.004 -10e-4,0.005 l 0,0.021 c 0,10e-4 0,0.002 -0.002,0.004 -0.001,0.002 -0.012,0.013 -0.018,0.018 l 0,1.217 0,0.005 c 0,0.004 0.004,0.003 0.004,0.003 l 0.004,0 c 0.005,0 0.005,0.004 0.005,0.008 l 0,0.025 c 0,0.006 0.001,0.021 0.004,0.026 0.002,0.004 0.002,0.009 -0.006,0.009 l -0.01,0 c -0.009,0 -0.01,0.011 -0.006,0.014 0.03,0.025 0.033,0.069 0.033,0.077 0,0.007 0,0.014 0.008,0.014 L 0,0 z"
             inkscape:connector-curvature="0"
             id="path34"
             style="fill:#ffffff;fill-opacity:1;fill-rule:nonzero;stroke:none" /></g><g
           transform="translate(314.8987,8.7859)"
           id="g36"><path
             d="m 0,0 c 0.003,0 0.005,0.002 0.005,0.005 l 0,0.056 c 0,0.002 -0.002,0 -0.005,0 l -0.331,0 c -0.003,0 -0.005,0.002 -0.005,0 l 0,-0.056 C -0.336,0.002 -0.334,0 -0.331,0 l 0.014,0 c 0.007,0 0.007,-0.007 0.007,-0.013 0,-0.009 0.004,-0.052 0.034,-0.078 0.004,-0.003 0.002,-0.014 -0.007,-0.014 l -0.01,0 c -0.007,0 -0.008,-0.005 -0.005,-0.009 0.002,-0.005 0.003,-0.02 0.003,-0.026 l 0,-0.025 c 0,-0.004 0,-0.008 0.005,-0.008 l 0.005,0 c 0,0 0.003,0.001 0.003,-0.003 l 0,-0.005 0,-1.217 C -0.285,-1.402 -0.298,-1.415 -0.3,-1.416 -0.301,-1.417 -0.301,-1.419 -0.301,-1.42 l 0,-0.021 c 0,-10e-4 -0.001,-0.004 -0.002,-0.005 -0.001,0 -0.003,-0.001 -0.004,-0.001 l -0.016,0 c -0.002,0 -0.005,-0.002 -0.005,-0.005 l 0,-0.035 0.324,0 0,0.035 c 0,0.003 -0.002,0.005 -0.004,0.005 l -0.016,0 c -0.002,0 -0.003,0.001 -0.004,0.001 -0.001,10e-4 -0.002,0.004 -0.002,0.005 l 0,0.021 c 0,10e-4 0,0.002 -0.002,0.004 -0.001,0.002 -0.012,0.013 -0.017,0.018 l 0,1.217 c 0,0 -0.001,0.002 -0.001,0.005 0,0.004 0.004,0.003 0.004,0.003 l 0.004,0 c 0.005,0 0.005,0.004 0.005,0.008 l 0,0.025 c 0,0.006 0.002,0.021 0.004,0.026 0.003,0.004 0.002,0.009 -0.006,0.009 l -0.01,0 c -0.009,0 -0.01,0.011 -0.006,0.014 0.03,0.025 0.033,0.069 0.033,0.077 0,0.007 0,0.014 0.008,0.014 L 0,0 z"
             inkscape:connector-curvature="0"
             id="path38"
             style="fill:#ffffff;fill-opacity:1;fill-rule:nonzero;stroke:none" /></g><g
           transform="translate(314.1847,8.7859)"
           id="g40"><path
             d="m 0,0 c 0.003,0 0.005,0.002 0.005,0.005 l 0,0.056 c 0,0.002 -0.002,0 -0.005,0 l -0.331,0 c -0.003,0 -0.005,0.002 -0.005,0 l 0,-0.056 C -0.336,0.002 -0.334,0 -0.331,0 l 0.014,0 c 0.007,0 0.007,-0.007 0.007,-0.013 0,-0.009 0.004,-0.052 0.034,-0.078 0.004,-0.003 0.002,-0.014 -0.006,-0.014 l -0.011,0 c -0.007,0 -0.008,-0.005 -0.006,-0.009 0.003,-0.005 0.004,-0.02 0.004,-0.026 l 0,-0.025 c 0,-0.004 0,-0.008 0.005,-0.008 l 0.005,0 c 0,0 0.003,0.001 0.003,-0.003 l 0,-0.005 0,-1.217 c -0.003,-0.004 -0.017,-0.017 -0.018,-0.018 0,-0.001 -0.001,-0.003 -0.001,-0.004 l 0,-0.021 c 0,-10e-4 -0.001,-0.004 -0.002,-0.005 -0.001,0 -0.003,-0.001 -0.004,-0.001 l -0.016,0 c -0.003,0 -0.004,-0.002 -0.004,-0.005 l 0,-0.035 0.323,0 0,0.035 c 0,0.003 -0.002,0.005 -0.004,0.005 l -0.016,0 c -0.001,0 -0.003,0.001 -0.004,0.001 -0.002,10e-4 -0.002,0.004 -0.002,0.005 l 0,0.021 c 0,10e-4 0,0.002 -0.002,0.004 -0.002,0.002 -0.012,0.013 -0.017,0.018 l 0,1.217 c 0,0 0,0.002 0,0.005 0,0.004 0.003,0.003 0.003,0.003 l 0.004,0 c 0.005,0 0.005,0.004 0.005,0.008 l 0,0.025 c 0,0.006 0.001,0.021 0.004,0.026 0.002,0.004 0.002,0.009 -0.006,0.009 l -0.009,0 c -0.01,0 -0.011,0.011 -0.007,0.014 0.03,0.025 0.033,0.069 0.033,0.077 0,0.007 0,0.014 0.008,0.014 L 0,0 z"
             inkscape:connector-curvature="0"
             id="path42"
             style="fill:#ffffff;fill-opacity:1;fill-rule:nonzero;stroke:none" /></g><g
           transform="translate(313.4707,8.7859)"
           id="g44"><path
             d="m 0,0 c 0.003,0 0.005,0.002 0.005,0.005 l 0,0.056 c 0,0.002 -0.002,0 -0.005,0 l -0.331,0 c -0.003,0 -0.005,0.002 -0.005,0 l 0,-0.056 C -0.336,0.002 -0.334,0 -0.331,0 l 0.014,0 c 0.007,0 0.007,-0.007 0.007,-0.013 0,-0.009 0.004,-0.052 0.034,-0.078 0.004,-0.003 0.002,-0.014 -0.006,-0.014 l -0.011,0 c -0.008,0 -0.008,-0.005 -0.006,-0.009 0.003,-0.005 0.004,-0.02 0.004,-0.026 l 0,-0.025 c 0,-0.004 0,-0.008 0.005,-0.008 l 0.005,0 c 0,0 0.003,0.001 0.003,-0.003 l 0,-0.005 0,-1.217 C -0.285,-1.402 -0.299,-1.415 -0.3,-1.416 -0.301,-1.417 -0.301,-1.419 -0.301,-1.42 l 0,-0.021 c 0,-10e-4 -0.001,-0.004 -0.002,-0.005 -0.001,0 -0.003,-0.001 -0.005,-0.001 l -0.015,0 c -0.002,0 -0.005,-0.002 -0.005,-0.005 l 0,-0.035 0.324,0 0,0.035 c 0,0.003 -0.002,0.005 -0.004,0.005 l -0.016,0 c -0.002,0 -0.003,0.001 -0.004,0.001 -0.001,10e-4 -0.002,0.004 -0.002,0.005 l 0,0.021 c 0,10e-4 0,0.002 -0.002,0.004 -0.002,0.002 -0.012,0.013 -0.018,0.018 l 0,1.217 c 0,0 0,0.002 0,0.005 0,0.004 0.004,0.003 0.004,0.003 l 0.004,0 c 0.005,0 0.005,0.004 0.005,0.008 l 0,0.025 c 0,0.006 0.001,0.021 0.004,0.026 0.002,0.004 0.002,0.009 -0.006,0.009 l -0.01,0 c -0.009,0 -0.01,0.011 -0.006,0.014 0.03,0.025 0.033,0.069 0.033,0.077 0,0.007 0,0.014 0.008,0.014 L 0,0 z"
             inkscape:connector-curvature="0"
             id="path46"
             style="fill:#ffffff;fill-opacity:1;fill-rule:nonzero;stroke:none" /></g><g
           transform="translate(312.7567,8.7859)"
           id="g48"><path
             d="m 0,0 c 0.003,0 0.005,0.002 0.005,0.005 l 0,0.056 c 0,0.002 -0.002,0 -0.005,0 l -0.331,0 c -0.003,0 -0.005,0.002 -0.005,0 l 0,-0.056 C -0.336,0.002 -0.334,0 -0.331,0 l 0.014,0 c 0.006,0 0.007,-0.007 0.007,-0.013 0,-0.009 0.004,-0.052 0.034,-0.078 0.004,-0.003 0.002,-0.014 -0.006,-0.014 l -0.011,0 c -0.007,0 -0.008,-0.005 -0.006,-0.009 0.003,-0.005 0.004,-0.02 0.004,-0.026 l 0,-0.025 c 0,-0.004 0,-0.008 0.005,-0.008 l 0.005,0 c 0,0 0.003,0.001 0.003,-0.003 0,-0.003 0,-0.005 0,-0.005 l 0,-1.217 C -0.285,-1.402 -0.299,-1.415 -0.3,-1.416 -0.301,-1.417 -0.301,-1.419 -0.301,-1.42 l 0,-0.021 c 0,-10e-4 -0.001,-0.004 -0.002,-0.005 -0.001,0 -0.003,-0.001 -0.004,-0.001 l -0.016,0 c -0.002,0 -0.005,-0.002 -0.005,-0.005 l 0,-0.035 0.324,0 0,0.035 c 0,0.003 -0.002,0.005 -0.004,0.005 l -0.016,0 c -0.002,0 -0.003,0.001 -0.005,0.001 -10e-4,10e-4 -10e-4,0.004 -10e-4,0.005 l 0,0.021 c 0,10e-4 0,0.002 -0.002,0.004 -0.002,0.002 -0.012,0.013 -0.018,0.018 l 0,1.217 c 0,0 0,0.002 0,0.005 0,0.004 0.004,0.003 0.004,0.003 l 0.004,0 c 0.005,0 0.005,0.004 0.005,0.008 l 0,0.025 c 0,0.006 0.001,0.021 0.004,0.026 0.002,0.004 0.002,0.009 -0.006,0.009 l -0.01,0 c -0.01,0 -0.01,0.011 -0.006,0.014 0.03,0.025 0.033,0.069 0.033,0.077 0,0.007 0,0.014 0.008,0.014 L 0,0 z"
             inkscape:connector-curvature="0"
             id="path50"
             style="fill:#ffffff;fill-opacity:1;fill-rule:nonzero;stroke:none" /></g><g
           transform="translate(315.3898,10.0754)"
           id="g52"><path
             d="m 0,0 -0.034,0 c -0.009,0 -0.009,0.007 -0.009,0.007 l 0,0.037 c 0,0.01 -0.009,0.01 -0.009,0.01 l -0.034,0 c -0.009,0 -0.009,0.008 -0.009,0.008 l 0,0.034 c 0,0 0.001,0.007 -0.008,0.007 l -0.02,0 c -0.007,0 -0.014,0.006 -0.015,0.016 -0.001,0.046 0.015,0.373 -0.158,0.609 -0.135,0.203 -0.322,0.306 -0.426,0.354 -0.002,0.044 -0.065,0.061 -0.092,0.071 -0.014,0.005 -0.027,0.01 -0.027,0.023 0,0.001 0,0.014 0,0.015 0,0.014 0.012,0.019 0.031,0.019 0.006,-10e-4 0.01,0.005 0.01,0.008 l 0,0.04 c 0,0.006 -0.005,0.012 -0.013,0.012 -0.013,0 -0.029,0 -0.037,0 -0.009,0 -0.013,0.008 -0.013,0.013 l 0,0.02 c 0,0.012 -0.01,0.018 -0.016,0.022 l 0,0.244 c 0,0.008 0.006,0.007 0.011,0.007 0.001,0 0.002,0 0.003,0 l 0.001,0 c 0.003,0 0.006,0.003 0.006,0.006 l 0,0.023 c 0,0.003 -0.003,0.006 -0.006,0.006 l -0.011,0 c -0.004,0.002 -0.007,0.007 -0.007,0.018 0,0.011 0.004,0.016 0.008,0.017 l 0.01,0 c 0.003,0 0.006,0.003 0.006,0.006 l 0,0.024 c 0,0.003 -0.003,0.005 -0.006,0.005 l -0.013,0 c -0.005,10e-4 -0.009,0.004 -0.015,0.008 -0.041,0.033 -0.083,0.08 -0.083,0.087 0,0.004 0,0.004 0,0.009 0,0.005 -0.005,0.015 -0.016,0.015 -0.011,0 -0.01,0.011 -0.004,0.011 0.004,0 0.005,0.001 0.005,0.007 l 0,0.015 c 0,0.008 -0.021,0.037 -0.021,0.037 l -0.002,0 c 0,0 -0.021,-0.029 -0.021,-0.037 0,-0.006 0,-0.012 0,-0.015 0,-0.006 0.001,-0.007 0.005,-0.007 0.006,0 0.007,-0.011 -0.004,-0.011 -0.011,0 -0.016,-0.01 -0.016,-0.015 0,-0.005 0,-0.005 0,-0.009 0,-0.007 -0.042,-0.054 -0.084,-0.087 C -1.138,1.685 -1.142,1.682 -1.147,1.681 l -0.013,0 c -0.003,0 -0.006,-0.002 -0.006,-0.005 l 0,-0.024 c 0,-0.003 0.003,-0.006 0.006,-0.006 l 0.01,0 c 0.004,-10e-4 0.007,-0.006 0.007,-0.017 0,-0.011 -0.002,-0.016 -0.006,-0.018 l -0.011,0 c -0.003,0 -0.006,-0.003 -0.006,-0.006 l 0,-0.023 c 0,-0.003 0.003,-0.006 0.006,-0.006 l 10e-4,0 c 0.001,0 0.002,0 0.002,0 0.006,0 0.012,10e-4 0.012,-0.007 l 0,-0.244 C -1.151,1.321 -1.161,1.315 -1.161,1.303 l 0,-0.02 c 0,-0.005 -0.004,-0.013 -0.013,-0.013 -0.008,0 -0.024,0 -0.037,0 -0.009,0 -0.014,-0.006 -0.014,-0.012 l 0,-0.04 c 0,-0.003 0.005,-0.009 0.01,-0.008 0.019,0 0.032,-0.005 0.032,-0.019 0,-0.001 -10e-4,-0.014 -10e-4,-0.015 0,-0.013 -0.012,-0.018 -0.026,-0.023 C -1.238,1.143 -1.301,1.126 -1.302,1.082 -1.406,1.034 -1.593,0.931 -1.728,0.728 -1.901,0.492 -1.885,0.165 -1.886,0.119 -1.887,0.109 -1.894,0.103 -1.901,0.103 l -0.02,0 C -1.93,0.103 -1.93,0.096 -1.93,0.096 l 0,-0.034 c 0,0 10e-4,-0.008 -0.009,-0.008 l -0.033,0 c 0,0 -0.009,0 -0.009,-0.01 l 0,-0.037 c 0,0 0,-0.007 -0.009,-0.007 l -0.034,0 c 0,0 -0.01,0 -0.01,-0.01 l 0,-0.039 c 0,-0.005 0.003,-0.005 0.006,-0.006 0.01,-0.001 0.031,-0.01 0.031,-0.033 0,-0.038 0.023,-0.042 0.033,-0.042 l 0,-0.142 c 0,-0.034 -0.026,-0.047 -0.041,-0.05 -0.002,-0.001 -0.007,-0.004 -0.007,-0.008 l 0,-0.146 0.999,0.22 0.002,0 0.998,-0.22 0,0.146 c 0,0.004 -0.004,0.007 -0.007,0.008 -0.015,0.003 -0.04,0.016 -0.04,0.05 l 0,0.142 c 0.009,0 0.033,0.004 0.033,0.042 0,0.023 0.02,0.032 0.03,0.033 0.004,0.001 0.006,0.001 0.006,0.006 l 0,0.039 C 0.009,0 0,0 0,0"
             inkscape:connector-curvature="0"
             id="path54"
             style="fill:#ffffff;fill-opacity:1;fill-rule:nonzero;stroke:none" /></g></g></g><g
       transform="translate(312.4287,7.3026)"
       id="g56"><path
         d="m 0,0 0,-0.127 -0.171,0 0,-0.292 -0.171,0 0,-0.295 4.579,0 0,0.295 -0.172,0 0,0.292 -0.171,0 L 3.894,0 0,0 z"
         inkscape:connector-curvature="0"
         id="path58"
         style="fill:#ffffff;fill-opacity:1;fill-rule:nonzero;stroke:none" /></g></g></svg>