<?xml version="1.0" encoding="UTF-8" standalone="no"?>
<svg
   xmlns:dc="http://purl.org/dc/elements/1.1/"
   xmlns:cc="http://creativecommons.org/ns#"
   xmlns:rdf="http://www.w3.org/1999/02/22-rdf-syntax-ns#"
   xmlns:svg="http://www.w3.org/2000/svg"
   xmlns="http://www.w3.org/2000/svg"
   id="svg8"
   version="1.1"
   viewBox="0 0 146.27759 107.46806"
   height="107.46806mm"
   width="146.27759mm">
  <defs
     id="defs2">
    <marker
       orient="auto"
       refY="0"
       refX="0"
       id="marker1841"
       style="overflow:visible">
      <path
         id="path1839"
         d="M 5.77,0 -2.88,5 V -5 Z"
         style="fill:#000000;fill-opacity:1;fill-rule:evenodd;stroke:#000000;stroke-width:1.00000003pt;stroke-opacity:1"
         transform="scale(0.8)" />
    </marker>
    <marker
       style="overflow:visible"
       id="marker1649"
       refX="0"
       refY="0"
       orient="auto">
      <path
         transform="scale(0.8)"
         style="fill:#000000;fill-opacity:1;fill-rule:evenodd;stroke:#000000;stroke-width:1.00000003pt;stroke-opacity:1"
         d="M 5.77,0 -2.88,5 V -5 Z"
         id="path1647" />
    </marker>
    <marker
       orient="auto"
       refY="0"
       refX="0"
       id="marker1235"
       style="overflow:visible">
      <path
         id="path1233"
         d="M 5.77,0 -2.88,5 V -5 Z"
         style="fill:#000000;fill-opacity:1;fill-rule:evenodd;stroke:#000000;stroke-width:1.00000003pt;stroke-opacity:1"
         transform="scale(0.8)" />
    </marker>
    <marker
       style="overflow:visible"
       id="TriangleOutL"
       refX="0"
       refY="0"
       orient="auto">
      <path
         transform="scale(0.8)"
         style="fill:#000000;fill-opacity:1;fill-rule:evenodd;stroke:#000000;stroke-width:1.00000003pt;stroke-opacity:1"
         d="M 5.77,0 -2.88,5 V -5 Z"
         id="path1051" />
    </marker>
  </defs>
  <metadata
     id="metadata5">
    <rdf:RDF>
      <cc:Work
         rdf:about="">
        <dc:format>image/svg+xml</dc:format>
        <dc:type
           rdf:resource="http://purl.org/dc/dcmitype/StillImage" />
        <dc:title></dc:title>
      </cc:Work>
    </rdf:RDF>
  </metadata>
  <g
     transform="translate(-21.432875,-47.777294)"
     id="layer1">
    <circle
       r="10.824416"
       cy="58.72921"
       cx="79.596527"
       id="path819"
       style="fill:none;fill-opacity:1;stroke:#000000;stroke-width:0.255;stroke-miterlimit:4;stroke-dasharray:none;stroke-dashoffset:0;stroke-opacity:1" />
    <text
       id="text1146"
       y="62.61388"
       x="77.324921"
       style="font-style:normal;font-weight:normal;font-size:10.58333302px;line-height:1.25;font-family:sans-serif;letter-spacing:0px;word-spacing:0px;fill:#000000;fill-opacity:1;stroke:none;stroke-width:0.26458332"
       xml:space="preserve"><tspan
         style="stroke-width:0.26458332"
         id="tspan1144"
         y="62.61388"
         x="77.324921"><tspan
           style="stroke-width:0.26458332"
           id="tspan1142"
           y="62.61388"
           x="77.324921">/</tspan></tspan></text>
    <ellipse
       ry="13.3155"
       rx="29.0844"
       cy="96.547859"
       cx="125.08214"
       id="path821"
       style="fill:none;fill-opacity:1;stroke:#000000;stroke-width:0.35095042;stroke-miterlimit:4;stroke-dasharray:none;stroke-dashoffset:0;stroke-opacity:1" />
    <rect
       ry="0"
       y="89.087555"
       x="21.629471"
       height="18.837944"
       width="37.546814"
       id="rect815"
       style="fill:none;fill-opacity:1;stroke:#000000;stroke-width:0.39319009;stroke-miterlimit:4;stroke-dasharray:none;stroke-dashoffset:0;stroke-opacity:1" />
    <path
       id="text1020"
       transform="matrix(0.26458333,0,0,0.26458333,21.432875,47.777294)"
       d="M 15.095703 179.4082 L 15.095703 199.66992 L 17.492188 199.66992 L 17.492188 179.4082 L 15.095703 179.4082 z M 80.304688 179.4082 L 80.304688 182.44336 L 82.701172 182.44336 L 82.701172 179.4082 L 80.304688 179.4082 z M 69.796875 180.94531 L 69.796875 185.08594 L 68.039062 185.08594 L 68.039062 186.94727 L 69.796875 186.94727 L 69.796875 194.86523 C 69.796875 196.68815 70.148437 197.94618 70.851562 198.64062 C 71.554688 199.32639 72.830729 199.66992 74.679688 199.66992 L 77.140625 199.66992 L 77.140625 197.66406 L 74.679688 197.66406 C 73.681424 197.66406 73.017361 197.49479 72.6875 197.15625 C 72.366319 196.81771 72.205078 196.05447 72.205078 194.86523 L 72.205078 186.94727 L 77.140625 186.94727 L 77.140625 185.08594 L 72.205078 185.08594 L 72.205078 180.94531 L 69.796875 180.94531 z M 28.142578 184.73438 C 26.050564 184.73437 24.409939 185.41146 23.220703 186.76562 C 22.040148 188.11979 21.451172 189.99479 21.451172 192.39062 C 21.451172 194.77778 22.040148 196.65278 23.220703 198.01562 C 24.409939 199.36979 26.050564 200.04687 28.142578 200.04688 C 30.225912 200.04688 31.863498 199.36979 33.052734 198.01562 C 34.241971 196.65278 34.835938 194.77778 34.835938 192.39062 C 34.835938 189.99479 34.241971 188.11979 33.052734 186.76562 C 31.863498 185.41146 30.225912 184.73438 28.142578 184.73438 z M 45.083984 184.73438 C 42.809679 184.73437 41.015842 185.41645 39.705078 186.7793 C 38.402995 188.14214 37.751953 190.01215 37.751953 192.39062 C 37.751953 194.73438 38.399957 196.59635 39.693359 197.97656 C 40.986762 199.35677 42.731554 200.04687 44.927734 200.04688 C 45.735026 200.04687 46.493273 199.96875 47.205078 199.8125 C 47.925564 199.65625 48.62066 199.42188 49.289062 199.10938 L 49.289062 196.89648 C 48.611979 197.26975 47.929905 197.55122 47.244141 197.74219 C 46.567057 197.92448 45.881944 198.01562 45.1875 198.01562 C 43.63368 198.01562 42.427734 197.52582 41.568359 196.54492 C 40.708984 195.55534 40.279297 194.17014 40.279297 192.39062 C 40.279297 190.61111 40.708984 189.2309 41.568359 188.25 C 42.427734 187.26042 43.63368 186.76562 45.1875 186.76562 C 45.881944 186.76562 46.567057 186.86176 47.244141 187.05273 C 47.929905 187.23503 48.611979 187.5115 49.289062 187.88477 L 49.289062 185.64648 C 48.62934 185.34266 47.947266 185.11632 47.244141 184.96875 C 46.541016 184.8125 45.821832 184.73438 45.083984 184.73438 z M 58.599609 184.73438 C 57.818359 184.73438 57.014106 184.82053 56.189453 184.99414 C 55.3648 185.15907 54.515408 185.41146 53.638672 185.75 L 53.638672 187.96289 C 54.367839 187.56359 55.126085 187.26411 55.916016 187.06445 C 56.705946 186.8648 57.518229 186.76562 58.351562 186.76562 C 59.662326 186.76563 60.677951 187.0701 61.398438 187.67773 C 62.127604 188.27669 62.492188 189.12609 62.492188 190.22852 L 62.492188 190.46289 L 59.132812 190.46289 C 56.953993 190.46289 55.313368 190.87956 54.210938 191.71289 C 53.117187 192.54622 52.570312 193.7832 52.570312 195.42383 C 52.570313 196.83008 53.008029 197.95486 53.884766 198.79688 C 54.770182 199.63021 55.960069 200.04688 57.453125 200.04688 C 58.633681 200.04687 59.631293 199.83854 60.447266 199.42188 C 61.263238 198.99653 61.945312 198.34049 62.492188 197.45508 L 62.492188 199.66992 L 64.888672 199.66992 L 64.888672 191.34961 C 64.888672 189.12739 64.367839 187.46875 63.326172 186.375 C 62.284505 185.28125 60.708984 184.73438 58.599609 184.73438 z M 93.351562 184.73438 C 91.259549 184.73437 89.618924 185.41146 88.429688 186.76562 C 87.249132 188.11979 86.658203 189.99479 86.658203 192.39062 C 86.658203 194.77778 87.249132 196.65278 88.429688 198.01562 C 89.618924 199.36979 91.259549 200.04687 93.351562 200.04688 C 95.434896 200.04688 97.070529 199.36979 98.259766 198.01562 C 99.449002 196.65278 100.04492 194.77778 100.04492 192.39062 C 100.04492 189.99479 99.449002 188.11979 98.259766 186.76562 C 97.070529 185.41146 95.434896 184.73438 93.351562 184.73438 z M 111.0332 184.73438 C 110.01758 184.73438 109.11914 184.95074 108.33789 185.38477 C 107.56532 185.81879 106.89323 186.47483 106.32031 187.35156 L 106.32031 185.08594 L 103.91211 185.08594 L 103.91211 199.66992 L 106.32031 199.66992 L 106.32031 191.42773 C 106.32031 190.00412 106.69293 188.87934 107.43945 188.05469 C 108.18598 187.23003 109.2066 186.81836 110.5 186.81836 C 111.57639 186.81836 112.38368 187.15994 112.92188 187.8457 C 113.46007 188.53147 113.72852 189.5651 113.72852 190.94531 L 113.72852 199.66992 L 116.125 199.66992 L 116.125 190.86719 C 116.125 188.8533 115.69531 187.32986 114.83594 186.29688 C 113.97656 185.25521 112.70855 184.73438 111.0332 184.73438 z M 125.56445 184.73438 C 123.77626 184.73438 122.39605 185.10699 121.42383 185.85352 C 120.45161 186.60004 119.9668 187.65972 119.9668 189.03125 C 119.9668 190.15972 120.29536 191.05013 120.95508 191.70117 C 121.6148 192.34353 122.6875 192.82031 124.17188 193.13281 L 125.00586 193.32812 C 126.49023 193.64931 127.44878 193.98286 127.88281 194.33008 C 128.32552 194.6773 128.54688 195.17708 128.54688 195.82812 C 128.54688 196.53125 128.2424 197.07812 127.63477 197.46875 C 127.02713 197.85069 126.15972 198.04102 125.03125 198.04102 C 124.18924 198.04102 123.33789 197.92882 122.47852 197.70312 C 121.61914 197.46875 120.74674 197.12218 119.86133 196.66211 L 119.86133 199.13477 C 120.79883 199.43859 121.68924 199.66493 122.53125 199.8125 C 123.38194 199.96875 124.19727 200.04687 124.97852 200.04688 C 126.85352 200.04687 128.32487 199.65126 129.39258 198.86133 C 130.46897 198.0714 131.00781 197.00065 131.00781 195.64648 C 131.00781 194.45725 130.64822 193.53277 129.92773 192.87305 C 129.21593 192.20464 128.00803 191.68685 126.30664 191.32227 L 125.48633 191.14062 C 124.20161 190.85417 123.34722 190.55469 122.92188 190.24219 C 122.49653 189.92101 122.2832 189.48329 122.2832 188.92773 C 122.2832 188.19857 122.57964 187.65169 123.16992 187.28711 C 123.76888 186.92253 124.66233 186.74023 125.85156 186.74023 C 126.63281 186.74023 127.38802 186.82639 128.11719 187 C 128.84635 187.17361 129.54948 187.43403 130.22656 187.78125 L 130.22656 185.51562 C 129.56684 185.25521 128.8457 185.0599 128.06445 184.92969 C 127.2832 184.79948 126.44987 184.73438 125.56445 184.73438 z M 80.304688 185.08594 L 80.304688 199.66992 L 82.701172 199.66992 L 82.701172 185.08594 L 80.304688 185.08594 z M 28.142578 186.76562 C 29.41862 186.76563 30.431207 187.27344 31.177734 188.28906 C 31.924262 189.29601 32.296875 190.66319 32.296875 192.39062 C 32.296875 194.12674 31.924262 195.49891 31.177734 196.50586 C 30.431207 197.5128 29.41862 198.01562 28.142578 198.01562 C 26.849175 198.01562 25.830512 197.51584 25.083984 196.51758 C 24.346137 195.51063 23.976562 194.13542 23.976562 192.39062 C 23.976563 190.64583 24.349175 189.27365 25.095703 188.27539 C 25.842231 187.26845 26.857856 186.76562 28.142578 186.76562 z M 93.351562 186.76562 C 94.627604 186.76563 95.638238 187.27344 96.384766 188.28906 C 97.131293 189.29601 97.505859 190.66319 97.505859 192.39062 C 97.505859 194.12674 97.131293 195.49891 96.384766 196.50586 C 95.638238 197.5128 94.627604 198.01562 93.351562 198.01562 C 92.05816 198.01562 91.037543 197.51584 90.291016 196.51758 C 89.553168 195.51063 89.185547 194.13542 89.185547 192.39062 C 89.185547 190.64583 89.55816 189.27365 90.304688 188.27539 C 91.051215 187.26845 92.06684 186.76562 93.351562 186.76562 z M 60.109375 192.33789 L 62.492188 192.33789 L 62.492188 192.87305 C 62.492188 194.43555 62.088542 195.68859 61.28125 196.63477 C 60.482639 197.57227 59.419922 198.04102 58.091797 198.04102 C 57.128255 198.04102 56.363064 197.79362 55.798828 197.29883 C 55.243273 196.79536 54.966797 196.11827 54.966797 195.26758 C 54.966797 194.19987 55.33941 193.44466 56.085938 193.00195 C 56.832465 192.55924 58.173611 192.33789 60.109375 192.33789 z "
       style="font-style:normal;font-weight:normal;font-size:7.05555582px;line-height:1.25;font-family:sans-serif;letter-spacing:0px;word-spacing:0px;fill:#000000;fill-opacity:1;stroke:none;stroke-width:0.99999994" />
    <rect
       ry="0.028749684"
       y="132.39995"
       x="52.602982"
       height="22.717907"
       width="63.610149"
       id="rect817"
       style="fill:none;fill-opacity:1;stroke:#000000;stroke-width:0.255;stroke-miterlimit:4;stroke-dasharray:none;stroke-dashoffset:0;stroke-opacity:1" />
    <text
       id="text1180"
       y="145.23831"
       x="57.136028"
       style="font-style:normal;font-weight:normal;font-size:10.58333302px;line-height:1.25;font-family:sans-serif;letter-spacing:0px;word-spacing:0px;fill:#000000;fill-opacity:1;stroke:none;stroke-width:0.26458332"
       xml:space="preserve"><tspan
         style="stroke-width:0.26458332"
         id="tspan1178"
         y="145.23831"
         x="57.136028"><tspan
           id="tspan1176"
           style="font-size:5.64444447px;stroke-width:0.26458332"
           y="145.23831"
           x="57.136028">sea_level_20191012</tspan></tspan></text>
    <path
       id="path905"
       d="M 71.059522,65.678569 50.64881,85.711307"
       style="fill:none;stroke:#000000;stroke-width:0.465;stroke-linecap:butt;stroke-linejoin:miter;stroke-miterlimit:4;stroke-dasharray:none;stroke-opacity:1;marker-end:url(#marker1235)" />
    <path
       id="path907"
       d="M 87.161308,66.283331 104.54821,82.914283"
       style="fill:none;stroke:#000000;stroke-width:0.465;stroke-linecap:butt;stroke-linejoin:miter;stroke-miterlimit:4;stroke-dasharray:none;stroke-opacity:1;marker-end:url(#TriangleOutL)" />
    <path
       style="fill:none;stroke:#000000;stroke-width:0.465;stroke-linecap:butt;stroke-linejoin:miter;stroke-miterlimit:4;stroke-dasharray:none;stroke-opacity:1;marker-end:url(#marker1649)"
       d="M 109.23512,108.38988 88.824405,128.42262"
       id="path1645" />
    <path
       id="path1837"
       d="m 133.97076,109.14583 20.41072,20.03274"
       style="fill:none;stroke:#000000;stroke-width:0.465;stroke-linecap:butt;stroke-linejoin:miter;stroke-miterlimit:4;stroke-dasharray:none;stroke-opacity:1;marker-end:url(#marker1841)" />
    <text
       id="text1097"
       y="141.94423"
       x="158.74977"
       style="font-style:normal;font-weight:normal;font-size:10.58333302px;line-height:1.25;font-family:sans-serif;letter-spacing:0px;word-spacing:0px;fill:#000000;fill-opacity:1;stroke:none;stroke-width:0.26458332"
       xml:space="preserve"><tspan
         style="stroke-width:0.26458332"
         id="tspan1095"
         y="141.94423"
         x="158.74977"><tspan
           style="stroke-width:0.26458332"
           id="tspan1093"
           y="141.94423"
           x="158.74977">...</tspan></tspan></text>
    <text
       id="text1169"
       y="98.049675"
       x="100.00475"
       style="font-style:normal;font-weight:normal;font-size:7.05555534px;line-height:1.25;font-family:sans-serif;letter-spacing:0px;word-spacing:0px;fill:#000000;fill-opacity:1;stroke:none;stroke-width:0.26458332"
       xml:space="preserve"><tspan
         style="font-size:7.05555534px;stroke-width:0.26458332"
         y="98.049675"
         x="100.00475"
         id="tspan1167">measurements</tspan></text>
  </g>
</svg>
